<?xml version="1.0" ?><svg height="100%" id="svg23" style="fill-rule:evenodd;clip-rule:evenodd;stroke-linejoin:round;stroke-miterlimit:2;" version="1.1" viewBox="0 0 64 64" width="100%" xml:space="preserve" xmlns="http://www.w3.org/2000/svg" xmlns:cc="http://creativecommons.org/ns#" xmlns:dc="http://purl.org/dc/elements/1.1/" xmlns:inkscape="http://www.inkscape.org/namespaces/inkscape" xmlns:rdf="http://www.w3.org/1999/02/22-rdf-syntax-ns#" xmlns:sodipodi="http://sodipodi.sourceforge.net/DTD/sodipodi-0.dtd" xmlns:svg="http://www.w3.org/2000/svg"><defs id="defs27"/><path d="m 23.000172,26.000182 c -3.31151,0 -6.000019,2.688508 -6.000019,6.000018 0,3.311511 2.688509,6.000019 6.000019,6.000019 3.31151,0 6.000019,-2.688508 6.000019,-6.000019 0,-3.31151 -2.688509,-6.000018 -6.000019,-6.000018 z m 0,2.000006 c 2.207673,0 4.000012,1.792339 4.000012,4.000012 0,2.207674 -1.792339,4.000013 -4.000012,4.000013 -2.207674,0 -4.000013,-1.792339 -4.000013,-4.000013 0,-2.207673 1.792339,-4.000012 4.000013,-4.000012 z" id="path4" style="stroke-width:0.166667;fill:#000000"/><path d="m 45.576375,43.348502 c -3.876679,1.676805 -8.550027,2.651742 -13.57671,2.651742 -5.026682,0 -9.70003,-0.974937 -13.576709,-2.651742 -0.506668,-0.2192 -1.095836,0.01387 -1.315004,0.520535 -0.219167,0.506668 0.01417,1.096004 0.520835,1.314671 4.10418,1.775472 9.049195,2.816542 14.370878,2.816542 5.321684,0 10.266699,-1.04107 14.370879,-2.816542 0.506668,-0.218667 0.740002,-0.808003 0.520835,-1.314671 -0.219168,-0.506668 -0.808336,-0.739735 -1.315004,-0.520535 z" id="path8" style="stroke-width:0.666669;fill:#000000"/><path d="m 24.249175,46.077803 c -0.661002,2.036006 -1.431004,3.967012 -2.296007,5.775018 -5.459017,-1.273004 -10.243032,-3.555011 -13.8650429,-6.53102 -0.059,-1.101004 -0.088,-2.212007 -0.088,-3.335011 0,-10.737033 2.6910079,-19.945062 7.0650219,-27.020084 2.932009,-1.303004 6.200019,-2.276007 9.69503,-2.846008 0.372001,1.291004 0.701002,2.620008 0.985003,3.982012 0.107,0.515002 0.594002,0.858003 1.115003,0.787002 1.658005,-0.229 3.377011,-0.349001 5.140016,-0.349001 1.763006,0 3.483011,0.120001 5.140016,0.349001 0.521002,0.071 1.008003,-0.272 1.115004,-0.787002 0.284,-1.362004 0.613001,-2.691008 0.985003,-3.982012 3.49501,0.570001 6.764021,1.543004 9.69303,2.845008 4.376013,7.076022 7.067022,16.284051 7.067022,27.021084 0,1.123004 -0.029,2.234007 -0.087,3.334011 -3.623011,2.977009 -8.407026,5.259016 -13.866043,6.53202 -0.865002,-1.808006 -1.635005,-3.739012 -2.296007,-5.775018 -0.17,-0.525002 -2.072006,0.093 -1.902006,0.618002 0.779003,2.400007 1.704006,4.661014 2.753009,6.753021 0.204,0.407001 0.658002,0.625002 1.103003,0.529001 6.29502,-1.344004 11.779037,-3.963012 15.830049,-7.405023 0.207001,-0.177 0.334001,-0.431001 0.350001,-0.703002 0.076,-1.279004 0.115001,-2.574008 0.115001,-3.883012 0,-11.294035 -2.888009,-20.953065 -7.532024,-28.340088 -0.104,-0.166 -0.254,-0.297001 -0.432001,-0.378001 -3.39801,-1.546005 -7.240022,-2.669008 -11.365035,-3.25801 -0.488002,-0.07 -0.954003,0.226001 -1.098004,0.697002 -0.405001,1.323004 -0.766002,2.686009 -1.080003,4.085013 -1.459004,-0.165001 -2.960009,-0.252001 -4.493014,-0.252001 -1.532005,0 -3.034009,0.087 -4.493014,0.252001 -0.314001,-1.399004 -0.675002,-2.762009 -1.080003,-4.085013 -0.144001,-0.471001 -0.610002,-0.7670021 -1.098004,-0.697002 -4.125012,0.589002 -7.967024,1.712005 -11.365035,3.25801 -0.178,0.081 -0.328001,0.212001 -0.432001,0.378001 -4.6440142,7.387023 -7.5320231,17.046053 -7.5320231,28.340088 0,1.309004 0.039,2.604008 0.1150003,3.883012 0.016,0.272001 0.1430005,0.526002 0.3500011,0.703002 4.0510127,3.442011 9.5350297,6.061019 15.8300487,7.405023 0.445001,0.096 0.899003,-0.122 1.103004,-0.529001 1.049003,-2.092007 1.974006,-4.353014 2.753008,-6.753021 0.170001,-0.525002 -1.732005,-1.143004 -1.902006,-0.618002 z" id="path12" style="stroke-width:1;fill:#000000"/><path d="m 41.000228,26.000182 c -3.31151,0 -6.000019,2.688508 -6.000019,6.000018 0,3.311511 2.688509,6.000019 6.000019,6.000019 3.31151,0 6.000019,-2.688508 6.000019,-6.000019 0,-3.31151 -2.688509,-6.000018 -6.000019,-6.000018 z m 0,2.000006 c 2.207673,0 4.000012,1.792339 4.000012,4.000012 0,2.207674 -1.792339,4.000013 -4.000012,4.000013 -2.207674,0 -4.000013,-1.792339 -4.000013,-4.000013 0,-2.207673 1.792339,-4.000012 4.000013,-4.000012 z" id="path16" style="stroke-width:0.166667;fill:#000000"/></svg>
