<svg version="1.1" xmlns="http://www.w3.org/2000/svg" viewBox="0 0 258.4000244140625 258.4000244140625" width="40" height="40">
<g stroke-linecap="round" transform="translate(10 10) rotate(0 119.20001220703125 119.20001220703125)"><path d="M238.4 119.2 C238.4 122.66, 238.25 126.14, 237.95 129.59 C237.64 133.04, 237.19 136.49, 236.59 139.9 C235.99 143.31, 235.23 146.71, 234.34 150.05 C233.44 153.4, 232.4 156.71, 231.21 159.97 C230.03 163.22, 228.7 166.44, 227.23 169.58 C225.77 172.71, 224.16 175.8, 222.43 178.8 C220.7 181.8, 218.83 184.73, 216.84 187.57 C214.86 190.41, 212.74 193.17, 210.51 195.82 C208.29 198.47, 205.94 201.04, 203.49 203.49 C201.04 205.94, 198.47 208.29, 195.82 210.51 C193.17 212.74, 190.41 214.86, 187.57 216.84 C184.73 218.83, 181.8 220.7, 178.8 222.43 C175.8 224.16, 172.71 225.77, 169.58 227.23 C166.44 228.7, 163.22 230.03, 159.97 231.21 C156.71 232.4, 153.4 233.44, 150.05 234.34 C146.71 235.23, 143.31 235.99, 139.9 236.59 C136.49 237.19, 133.04 237.64, 129.59 237.95 C126.14 238.25, 122.66 238.4, 119.2 238.4 C115.74 238.4, 112.26 238.25, 108.81 237.95 C105.36 237.64, 101.91 237.19, 98.5 236.59 C95.09 235.99, 91.69 235.23, 88.35 234.34 C85 233.44, 81.69 232.4, 78.43 231.21 C75.18 230.03, 71.96 228.7, 68.82 227.23 C65.69 225.77, 62.6 224.16, 59.6 222.43 C56.6 220.7, 53.67 218.83, 50.83 216.84 C47.99 214.86, 45.23 212.74, 42.58 210.51 C39.93 208.29, 37.36 205.94, 34.91 203.49 C32.46 201.04, 30.11 198.47, 27.89 195.82 C25.66 193.17, 23.54 190.41, 21.56 187.57 C19.57 184.73, 17.7 181.8, 15.97 178.8 C14.24 175.8, 12.63 172.71, 11.17 169.58 C9.7 166.44, 8.37 163.22, 7.19 159.97 C6 156.71, 4.96 153.4, 4.06 150.05 C3.17 146.71, 2.41 143.31, 1.81 139.9 C1.21 136.49, 0.76 133.04, 0.45 129.59 C0.15 126.14, 0 122.66, 0 119.2 C0 115.74, 0.15 112.26, 0.45 108.81 C0.76 105.36, 1.21 101.91, 1.81 98.5 C2.41 95.09, 3.17 91.69, 4.06 88.35 C4.96 85, 6 81.69, 7.19 78.43 C8.37 75.18, 9.7 71.96, 11.17 68.82 C12.63 65.69, 14.24 62.6, 15.97 59.6 C17.7 56.6, 19.57 53.67, 21.56 50.83 C23.54 47.99, 25.66 45.23, 27.89 42.58 C30.11 39.93, 32.46 37.36, 34.91 34.91 C37.36 32.46, 39.93 30.11, 42.58 27.89 C45.23 25.66, 47.99 23.54, 50.83 21.56 C53.67 19.57, 56.6 17.7, 59.6 15.97 C62.6 14.24, 65.69 12.63, 68.82 11.17 C71.96 9.7, 75.18 8.37, 78.43 7.19 C81.69 6, 85 4.96, 88.35 4.06 C91.69 3.17, 95.09 2.41, 98.5 1.81 C101.91 1.21, 105.36 0.76, 108.81 0.45 C112.26 0.15, 115.74 0, 119.2 0 C122.66 0, 126.14 0.15, 129.59 0.45 C133.04 0.76, 136.49 1.21, 139.9 1.81 C143.31 2.41, 146.71 3.17, 150.05 4.06 C153.4 4.96, 156.71 6, 159.97 7.19 C163.22 8.37, 166.44 9.7, 169.58 11.17 C172.71 12.63, 175.8 14.24, 178.8 15.97 C181.8 17.7, 184.73 19.57, 187.57 21.56 C190.41 23.54, 193.17 25.66, 195.82 27.89 C198.47 30.11, 201.04 32.46, 203.49 34.91 C205.94 37.36, 208.29 39.93, 210.51 42.58 C212.74 45.23, 214.86 47.99, 216.84 50.83 C218.83 53.67, 220.7 56.6, 222.43 59.6 C224.16 62.6, 225.77 65.69, 227.23 68.82 C228.7 71.96, 230.03 75.18, 231.21 78.43 C232.4 81.69, 233.44 85, 234.34 88.35 C235.23 91.69, 235.99 95.09, 236.59 98.5 C237.19 101.91, 237.64 105.36, 237.95 108.81 C238.25 112.26, 238.32 117.47, 238.4 119.2 C238.48 120.93, 238.48 117.47, 238.4 119.2" stroke="#000000" stroke-width="10" fill="none"></path></g><g stroke-linecap="round" transform="translate(61.5999755859375 61.5999755859375) rotate(0 67.60003662109375 67.60003662109375)"><path d="M135.2 67.6 C135.2 70.12, 135.06 72.66, 134.78 75.17 C134.49 77.68, 134.07 80.18, 133.51 82.64 C132.94 85.1, 132.24 87.55, 131.41 89.93 C130.57 92.31, 129.6 94.66, 128.51 96.93 C127.41 99.2, 126.18 101.43, 124.84 103.57 C123.5 105.7, 122.02 107.78, 120.45 109.75 C118.88 111.72, 117.18 113.62, 115.4 115.4 C113.62 117.18, 111.72 118.88, 109.75 120.45 C107.78 122.02, 105.7 123.5, 103.57 124.84 C101.43 126.18, 99.2 127.41, 96.93 128.51 C94.66 129.6, 92.31 130.57, 89.93 131.41 C87.55 132.24, 85.1 132.94, 82.64 133.51 C80.18 134.07, 77.68 134.49, 75.17 134.78 C72.66 135.06, 70.12 135.2, 67.6 135.2 C65.08 135.2, 62.54 135.06, 60.03 134.78 C57.52 134.49, 55.02 134.07, 52.56 133.51 C50.1 132.94, 47.65 132.24, 45.27 131.41 C42.89 130.57, 40.54 129.6, 38.27 128.51 C36 127.41, 33.77 126.18, 31.63 124.84 C29.5 123.5, 27.42 122.02, 25.45 120.45 C23.48 118.88, 21.58 117.18, 19.8 115.4 C18.02 113.62, 16.32 111.72, 14.75 109.75 C13.18 107.78, 11.7 105.7, 10.36 103.57 C9.02 101.43, 7.79 99.2, 6.69 96.93 C5.6 94.66, 4.63 92.31, 3.79 89.93 C2.96 87.55, 2.26 85.1, 1.69 82.64 C1.13 80.18, 0.71 77.68, 0.43 75.17 C0.14 72.66, 0 70.12, 0 67.6 C0 65.08, 0.14 62.54, 0.43 60.03 C0.71 57.52, 1.13 55.02, 1.69 52.56 C2.26 50.1, 2.96 47.65, 3.79 45.27 C4.63 42.89, 5.6 40.54, 6.69 38.27 C7.79 36, 9.02 33.77, 10.36 31.63 C11.7 29.5, 13.18 27.42, 14.75 25.45 C16.32 23.48, 18.02 21.58, 19.8 19.8 C21.58 18.02, 23.48 16.32, 25.45 14.75 C27.42 13.18, 29.5 11.7, 31.63 10.36 C33.77 9.02, 36 7.79, 38.27 6.69 C40.54 5.6, 42.89 4.63, 45.27 3.79 C47.65 2.96, 50.1 2.26, 52.56 1.69 C55.02 1.13, 57.52 0.71, 60.03 0.43 C62.54 0.14, 65.08 0, 67.6 0 C70.12 0, 72.66 0.14, 75.17 0.43 C77.68 0.71, 80.18 1.13, 82.64 1.69 C85.1 2.26, 87.55 2.96, 89.93 3.79 C92.31 4.63, 94.66 5.6, 96.93 6.69 C99.2 7.79, 101.43 9.02, 103.57 10.36 C105.7 11.7, 107.78 13.18, 109.75 14.75 C111.72 16.32, 113.62 18.02, 115.4 19.8 C117.18 21.58, 118.88 23.48, 120.45 25.45 C122.02 27.42, 123.5 29.5, 124.84 31.63 C126.18 33.77, 127.41 36, 128.51 38.27 C129.6 40.54, 130.57 42.89, 131.41 45.27 C132.24 47.65, 132.94 50.1, 133.51 52.56 C134.07 55.02, 134.49 57.52, 134.78 60.03 C135.06 62.54, 135.13 66.34, 135.2 67.6 C135.27 68.86, 135.27 66.34, 135.2 67.6" stroke="#000000" stroke-width="10" fill="none"></path></g><g stroke-linecap="round"><g transform="translate(180.47384093914332 81.58766265923128) rotate(0 18.763110048006467 -16.19384048488908)"><path d="M0 0 C6.25 -5.4, 31.27 -26.99, 37.53 -32.39 M0 0 C6.25 -5.4, 31.27 -26.99, 37.53 -32.39" stroke="#000000" stroke-width="4" fill="none"></path></g></g><mask></mask><g stroke-linecap="round"><g transform="translate(184.45744425708494 172.02048075015722) rotate(0 19.971290078488778 14.589750469647953)"><path d="M0 0 C6.66 4.86, 33.29 24.32, 39.94 29.18 M0 0 C6.66 4.86, 33.29 24.32, 39.94 29.18" stroke="#000000" stroke-width="10" fill="none"></path></g></g><mask></mask></svg>
